<svg width="640" height="360" viewBox="0 0 640 360" fill="none" xmlns="http://www.w3.org/2000/svg">
  <rect width="640" height="360" rx="28" fill="#26468D"/>
  <ellipse cx="320" cy="310" rx="220" ry="28" fill="#D16D48" fill-opacity="0.85"/>
  <rect x="206" y="170" width="228" height="112" rx="16" fill="#F8D8C4"/>
  <rect x="226" y="126" width="188" height="64" rx="14" fill="#FFDFA9"/>
  <rect x="248" y="82" width="144" height="56" rx="12" fill="#FFEFD2"/>
  <path d="M274 82C274 69.8497 283.85 60 296 60H344C356.15 60 366 69.8497 366 82V82H274V82Z" fill="#1A9887"/>
  <rect x="315" y="36" width="10" height="26" rx="5" fill="#FFE9B1"/>
  <path d="M320 22C326.075 22 331 27.1487 331 33.5C331 40.2254 324.967 44.3423 321.934 47.4017C321.434 47.9064 320.567 47.9064 320.066 47.4017C317.033 44.3423 311 40.2254 311 33.5C311 27.1487 315.925 22 322 22H320Z" fill="#FFD85A"/>
  <circle cx="258" cy="103" r="8" fill="#FF8FA3"/>
  <circle cx="382" cy="155" r="8" fill="#FF8FA3"/>
  <circle cx="340" cy="216" r="8" fill="#FF8FA3"/>
  <circle cx="286" cy="237" r="8" fill="#FF8FA3"/>
  <circle cx="371" cy="259" r="8" fill="#FF8FA3"/>
</svg>
